# xmcd
# 
# Track frame offsets:
#     150
#     21845
#     47832
#     109812
#     125545
#     146815
#     181360
# 
# Disc length: 2632
# 
# Revision: 29
# Processed by: cddbd v1.5.2PL0 Copyright (c) Steve Scherf et al.
# Submitted via: fre:ac v1.0.17
# 
DISCID=630a4607
DTITLE=Peter Frampton - F R A M P T O N   C O M E S   A L I V E !    1 9 7 6    ( 25th Anniversary Deluxe Edition )    C D  2        2 0 0 1
DYEAR=1976
DGENRE=Rock
TTITLE0=Nowhere's Too Far For My Baby  1976   (Released 2001)
TTITLE1=(I'll Give You) Money  1976
TTITLE2=Do You Feel Like We Do  1976
TTITLE3=Shine On  1976
TTITLE4=White Sugar  1976   (Released 2001)
TTITLE5=Jumping Jack Flash  1976
TTITLE6=Day's Dawning  1976   (Released 2001)
EXTD=
EXTT0=
EXTT1=
EXTT2=
EXTT3=
EXTT4=
EXTT5=
EXTT6=
PLAYORDER=
